<?xml version="1.0" encoding="utf-8"?>
<!-- Generator: Adobe Illustrator 23.0.0, SVG Export Plug-In . SVG Version: 6.00 Build 0)  -->
<svg version="1.1" id="Layer_1" xmlns="http://www.w3.org/2000/svg" xmlns:xlink="http://www.w3.org/1999/xlink" x="0px" y="0px"
	 viewBox="0 0 302.3 302" style="enable-background:new 0 0 302.3 302;" xml:space="preserve">
<g>
	<path d="M300.6,151c0-15.4-72.3-16.3-77.9-29.7c-5.8-13.9,44.5-65.6,34.1-76.1c-10.5-10.5-62.2,39.8-76,34.1
		c-13.4-5.5-14.3-77.9-29.7-77.9s-16.3,72.3-29.7,77.9c-13.9,5.8-65.6-44.5-76.1-34.1C35,55.7,85.3,107.4,79.5,121.3
		C74,134.7,1.6,135.6,1.6,151s72.3,16.3,77.9,29.7c5.8,13.9-44.5,65.6-34.1,76.1c10.4,10.5,62.2-39.8,76.1-34.1
		c13.4,5.5,14.3,77.9,29.7,77.9s16.3-72.3,29.7-77.9c13.9-5.8,65.6,44.5,76.1,34.1c10.5-10.5-39.8-62.2-34.1-76
		C228.3,167.2,300.6,166.4,300.6,151z M151.1,193.7c-23.6,0-42.8-19.1-42.8-42.8s19.1-42.8,42.8-42.8s42.8,19.1,42.8,42.8
		S174.8,193.7,151.1,193.7z"/>
</g>
</svg>
